<svg width="148" height="135" viewBox="0 0 148 135" fill="none" xmlns="http://www.w3.org/2000/svg">
<path d="M10 57C4.47715 57 5.35627e-07 61.4772 0 67C-5.35627e-07 72.5228 4.47715 77 10 77L10 57ZM128 77C133.523 77 138 72.5229 138 67C138 61.4772 133.523 57 128 57L128 77ZM87.3467 2.92893C83.4415 -0.976311 77.1098 -0.976311 73.2046 2.92893C69.2993 6.83418 69.2993 13.1658 73.2046 17.0711L87.3467 2.92893ZM137.551 67.2757L144.622 74.3467C148.528 70.4415 148.528 64.1098 144.622 60.2046L137.551 67.2757ZM73.2046 117.48C69.2993 121.385 69.2993 127.717 73.2046 131.622C77.1098 135.528 83.4415 135.528 87.3467 131.622L73.2046 117.48ZM10 77L128 77L128 57L10 57L10 77ZM73.2046 17.0711L130.48 74.3467L144.622 60.2046L87.3467 2.92893L73.2046 17.0711ZM130.48 60.2046L73.2046 117.48L87.3467 131.622L144.622 74.3467L130.48 60.2046Z" fill="#8226de"/>
</svg>
